<?xml version="1.0" standalone="no"?>
<!DOCTYPE svg PUBLIC "-//W3C//DTD SVG 20010904//EN"
 "http://www.w3.org/TR/2001/REC-SVG-20010904/DTD/svg10.dtd">
<svg version="1.0" xmlns="http://www.w3.org/2000/svg"
 width="1024.000000pt" height="1024.000000pt" viewBox="0 0 1024.000000 1024.000000"
 preserveAspectRatio="xMidYMid meet">

<g transform="translate(0.000000,1024.000000) scale(0.100000,-0.100000)"
fill="#000000" stroke="none">
<path d="M5032 8701 c-62 -25 -111 -67 -133 -115 -17 -39 -19 -77 -19 -661 0
-397 4 -633 10 -657 15 -52 68 -117 115 -142 50 -26 167 -34 233 -15 63 17
133 88 150 149 10 34 12 200 10 687 l-3 641 -31 39 c-16 21 -54 50 -84 66 -45
23 -66 27 -129 26 -48 0 -92 -7 -119 -18z"/>
<path d="M3350 8342 c-71 -27 -104 -48 -144 -92 -86 -95 -82 -126 56 -424 193
-418 308 -668 350 -765 70 -159 129 -206 258 -205 93 0 169 28 233 85 60 52
81 106 75 196 -4 79 9 52 -308 648 -114 215 -219 413 -234 441 -30 58 -79 108
-119 123 -40 16 -115 12 -167 -7z"/>
<path d="M6747 8340 c-48 -27 -73 -66 -237 -380 -73 -140 -170 -325 -215 -410
-188 -354 -190 -358 -190 -435 1 -52 6 -80 22 -111 61 -116 241 -183 373 -139
78 26 122 77 187 220 30 66 92 201 138 300 340 740 332 718 306 798 -41 122
-272 217 -384 157z"/>
<path d="M1895 7401 c-48 -22 -150 -127 -170 -175 -23 -54 -19 -122 9 -170 14
-23 78 -89 143 -147 65 -59 213 -191 328 -294 116 -104 267 -239 337 -302 70
-62 130 -118 133 -123 4 -6 30 -23 58 -37 109 -57 259 -26 343 70 49 57 84
133 84 185 0 51 -32 122 -74 165 -30 31 -487 422 -893 764 -28 24 -71 52 -95
63 -56 25 -149 26 -203 1z"/>
<path d="M8198 7405 c-21 -8 -93 -60 -159 -117 -67 -57 -154 -130 -194 -163
-39 -33 -152 -129 -251 -214 -98 -84 -222 -190 -274 -235 -124 -106 -149 -133
-171 -181 -40 -87 -11 -195 78 -283 69 -68 112 -87 203 -87 57 0 85 6 115 22
41 22 286 236 868 762 130 117 157 158 157 237 0 57 -19 101 -75 169 -57 69
-125 105 -200 104 -33 0 -77 -7 -97 -14z"/>
<path d="M4890 6619 c-223 -23 -521 -101 -720 -189 -406 -180 -786 -501 -1016
-858 -356 -551 -460 -1228 -290 -1888 103 -397 311 -759 606 -1054 357 -356
789 -579 1301 -670 91 -17 180 -24 336 -27 236 -6 364 4 548 42 471 98 862
302 1189 623 288 282 483 600 595 972 148 487 138 1012 -29 1495 -44 128 -167
372 -248 495 -304 456 -726 777 -1247 949 -184 60 -329 93 -490 111 -106 12
-414 11 -535 -1z m485 -459 c137 -16 237 -38 383 -86 563 -184 1009 -622 1198
-1178 162 -477 129 -978 -96 -1427 -149 -298 -359 -538 -625 -714 -138 -91
-216 -132 -347 -184 -208 -82 -351 -115 -576 -133 -511 -40 -1031 135 -1416
477 -481 429 -709 1090 -595 1726 119 664 585 1205 1232 1428 119 41 263 75
377 90 94 12 360 13 465 1z"/>
<path d="M4980 5733 c-383 -60 -689 -224 -922 -493 -117 -136 -205 -287 -267
-463 -262 -743 144 -1571 898 -1831 457 -159 951 -88 1351 192 102 72 267 244
343 358 328 493 329 1108 3 1599 -141 213 -334 381 -571 495 -222 108 -415
151 -663 149 -81 -1 -158 -4 -172 -6z"/>
</g>
</svg>
