<?xml version="1.0" encoding="UTF-8"?>
<svg version="1.1" xmlns="http://www.w3.org/2000/svg" width="800" height="800">
<path d="M0 0 C264 0 528 0 800 0 C800 264 800 528 800 800 C536 800 272 800 0 800 C0 536 0 272 0 0 Z " fill="#EBE7E0" transform="translate(0,0)"/>
<path d="M0 0 C0.78761719 -0.01409912 1.57523437 -0.02819824 2.38671875 -0.04272461 C15.84283869 0.06819291 27.61385121 7.01212567 37.15625 16.1015625 C45.91569309 25.07690736 51.43287383 36.60755473 51.55200195 49.28930664 C51.57125481 51.07619652 51.57125481 51.07619652 51.59089661 52.89918518 C51.59828354 54.18155563 51.60567047 55.46392609 51.61328125 56.78515625 C51.621353 58.10414413 51.62942474 59.42313202 51.63774109 60.78208923 C51.65273359 63.570301 51.66259044 66.35848758 51.67016602 69.14672852 C51.68126644 72.72035374 51.71572222 76.29336244 51.75533772 79.86676884 C51.78772127 83.27704067 51.79227323 86.68724249 51.80078125 90.09765625 C51.81828934 91.38205093 51.83579742 92.66644562 51.85383606 93.98976135 C51.84944771 95.77192299 51.84944771 95.77192299 51.8449707 97.59008789 C51.85083694 98.63725479 51.85670319 99.68442169 51.86274719 100.76332092 C51.375 103.375 51.375 103.375 49.54315186 105.21229553 C46.47734357 106.85638194 43.99298738 106.76379988 40.52734375 106.7734375 C39.87423721 106.77630768 39.22113068 106.77917786 38.54823303 106.78213501 C37.17236459 106.7841703 35.79646687 106.77867778 34.4206543 106.76611328 C32.31558656 106.75002359 30.21243089 106.76599077 28.10742188 106.78515625 C26.76822494 106.78317423 25.42902919 106.77933139 24.08984375 106.7734375 C22.87417725 106.77005371 21.65851074 106.76666992 20.40600586 106.76318359 C17.375 106.375 17.375 106.375 15.71060181 105.16915894 C13.92718031 102.77342872 13.9908592 101.2525945 13.97436523 98.28027344 C13.95435707 96.72285431 13.95435707 96.72285431 13.9339447 95.13397217 C13.93377098 93.45117157 13.93377098 93.45117157 13.93359375 91.734375 C13.91378197 90.00105927 13.91378197 90.00105927 13.89356995 88.23272705 C13.85259541 84.53012727 13.83099226 80.82777548 13.8125 77.125 C13.78868048 73.43658373 13.76046399 69.74840009 13.72071838 66.06011963 C13.69645623 63.76409991 13.68152067 61.46795763 13.67710876 59.17181396 C13.62268554 53.55731728 13.48856627 48.61703434 11.375 43.375 C6.16129416 39.15966336 2.03597514 37.9156224 -4.625 38.375 C-7.38941969 39.78259341 -7.38941969 39.78259341 -9.625 41.375 C-10.285 41.375 -10.945 41.375 -11.625 41.375 C-12.0890625 42.303125 -12.0890625 42.303125 -12.5625 43.25 C-13.25 44.625 -13.9375 46 -14.625 47.375 C-14.72399471 49.11028924 -14.76054976 50.84930307 -14.7668457 52.58740234 C-14.77388016 53.67548187 -14.78091461 54.7635614 -14.78816223 55.88461304 C-14.79440865 57.65489365 -14.79440865 57.65489365 -14.80078125 59.4609375 C-14.82397613 61.94271685 -14.84809332 64.42448771 -14.87304688 66.90625 C-14.90820729 70.83241472 -14.93752821 74.7582671 -14.95092773 78.68457031 C-14.96636507 82.46458011 -15.00654815 86.24366956 -15.05078125 90.0234375 C-15.04887283 91.19957611 -15.04696442 92.37571472 -15.04499817 93.5874939 C-15.06148911 94.68187775 -15.07798004 95.7762616 -15.0949707 96.90380859 C-15.10377007 98.34703995 -15.10377007 98.34703995 -15.11274719 99.81942749 C-15.77505866 103.12362601 -17.00062905 104.32111947 -19.625 106.375 C-22.69360352 106.87670898 -22.69360352 106.87670898 -26.25390625 106.87109375 C-28.17686523 106.87206055 -28.17686523 106.87206055 -30.13867188 106.87304688 C-31.1353186 106.85745728 -31.1353186 106.85745728 -32.15209961 106.84155273 C-34.18490925 106.81253698 -36.21511817 106.82096066 -38.24804688 106.83398438 C-48.07933585 106.76966291 -48.07933585 106.76966291 -50.28564453 105.17390442 C-52.09085322 102.74930694 -51.99700173 101.19611124 -51.99389648 98.18847656 C-52.00077988 97.13017639 -52.00766327 96.07187622 -52.01475525 94.98150635 C-52.00859695 93.8377655 -52.00243866 92.69402466 -51.99609375 91.515625 C-52.01348125 89.09635279 -52.03106557 86.67708199 -52.04882812 84.2578125 C-52.05889118 80.44170484 -52.06250031 76.62569067 -52.06079102 72.80957031 C-52.06436677 69.12797162 -52.09173951 65.44709501 -52.12109375 61.765625 C-52.11291122 60.62998108 -52.1047287 59.49433716 -52.09629822 58.32427979 C-52.15764482 51.77789288 -52.7186774 47.6996267 -56.625 42.375 C-59.85785833 39.30378458 -63.19616257 38.43626249 -67.5625 37.8125 C-72.22907985 38.08539941 -76.42438665 39.95650453 -79.625 43.375 C-82.03860856 49.70448787 -81.90444479 55.83606011 -81.8984375 62.546875 C-81.91870914 64.9257861 -81.93955956 67.30469233 -81.9609375 69.68359375 C-81.98362009 73.41882474 -82.00004493 77.15386321 -82.00585938 80.88916016 C-82.01533996 84.50458112 -82.04904225 88.1191448 -82.0859375 91.734375 C-82.08089203 92.85624207 -82.07584656 93.97810913 -82.07064819 95.13397217 C-82.08391144 96.17225159 -82.09717468 97.21053101 -82.11083984 98.28027344 C-82.11368988 99.19403748 -82.11653992 100.10780151 -82.11947632 101.04925537 C-82.625 103.375 -82.625 103.375 -84.46633911 105.16915894 C-87.45958393 106.84120364 -89.80279261 106.76354573 -93.21875 106.7734375 C-94.49621094 106.77730469 -95.77367187 106.78117187 -97.08984375 106.78515625 C-97.75226074 106.77887207 -98.41467773 106.77258789 -99.09716797 106.76611328 C-101.11885089 106.75004886 -103.13853513 106.76597765 -105.16015625 106.78515625 C-106.43761719 106.78128906 -107.71507812 106.77742188 -109.03125 106.7734375 C-110.19978516 106.77005371 -111.36832031 106.76666992 -112.57226562 106.76318359 C-116.00657939 106.32647863 -117.18776021 105.78352787 -119.625 103.375 C-120.12620544 100.88635254 -120.12620544 100.88635254 -120.12670898 97.88476562 C-120.13608994 96.75929321 -120.14547089 95.6338208 -120.15513611 94.47424316 C-120.14390213 93.25555542 -120.13266815 92.03686768 -120.12109375 90.78125 C-120.1232766 88.89569397 -120.1232766 88.89569397 -120.12550354 86.9720459 C-120.12384094 84.30503239 -120.11432102 81.63943505 -120.09155273 78.97265625 C-120.06339758 75.58475385 -120.06583944 72.19775859 -120.07864285 68.80979156 C-120.0873602 65.55022159 -120.0721038 62.29079211 -120.05859375 59.03125 C-120.06152939 57.8287561 -120.06446503 56.62626221 -120.06748962 55.3873291 C-119.89643054 39.86909927 -115.0167451 26.04388484 -104.18359375 14.69921875 C-93.03430657 4.57124032 -83.05284438 0.84822846 -68.25 0.9375 C-67.08210938 0.91751953 -65.91421875 0.89753906 -64.7109375 0.87695312 C-54.40571559 0.88272959 -46.8405127 3.42369801 -38.51171875 9.421875 C-35.97799929 10.70184922 -34.4380523 10.75261939 -31.625 10.375 C-29.03974688 8.96461397 -29.03974688 8.96461397 -26.5 7.0625 C-17.86009395 1.4018719 -10.16980528 0.13303524 0 0 Z " fill="#040404" transform="translate(239.625,355.625)"/>
<path d="M0 0 C0.97965981 -0.00074776 0.97965981 -0.00074776 1.97911072 -0.00151062 C3.35500137 0.00082281 4.73089686 0.01050827 6.10668945 0.02709961 C8.21148834 0.05074356 10.31502344 0.04764948 12.41992188 0.04101562 C22.73335464 0.08395518 22.73335464 0.08395518 26.15234375 2.36328125 C26.5131073 5.03347778 26.5131073 5.03347778 26.49291992 8.46533203 C26.49258003 10.38709763 26.49258003 10.38709763 26.49223328 12.34768677 C26.47691216 13.75132595 26.46126415 15.15496159 26.4453125 16.55859375 C26.43971813 17.9906266 26.43544728 19.42266518 26.43244934 20.85470581 C26.42098788 24.62615781 26.39150999 28.3972639 26.3583374 32.1685791 C26.32766425 36.01598429 26.31394993 39.86344531 26.29882812 43.7109375 C26.26664113 51.26187655 26.21542959 58.81253046 26.15234375 66.36328125 C30.35278581 63.98203004 32.63940718 61.71962088 35.51953125 57.8203125 C42.91249336 48.49549481 50.21794832 39.40880887 62.64849854 37.86909485 C67.10236896 37.54494859 71.50324892 37.52256251 75.96484375 37.67578125 C77.28171173 37.71996689 77.28171173 37.71996689 78.62518311 37.76504517 C92.53927831 38.3784 92.53927831 38.3784 96.21362305 40.62182617 C97.15234375 42.36328125 97.15234375 42.36328125 97.02099609 44.82299805 C96.09955135 47.51766712 95.17296701 48.92650128 93.25390625 51.0078125 C92.62258789 51.69439941 91.99126953 52.38098633 91.34082031 53.08837891 C87.12739943 57.46819325 82.84428749 61.77313742 78.52734375 66.05078125 C77.59921875 66.97439453 76.67109375 67.89800781 75.71484375 68.84960938 C73.98993473 70.56586913 72.26399208 72.28109122 70.53662109 73.99487305 C65.0685629 79.37470869 65.0685629 79.37470869 59.77734375 84.92578125 C58.99230469 85.76302734 58.99230469 85.76302734 58.19140625 86.6171875 C56.94267995 88.30181904 56.94267995 88.30181904 57.41577148 90.2578125 C60.48823495 99.04035309 71.66964976 106.95704343 78.21484375 113.42578125 C96.8975032 131.89086918 96.8975032 131.89086918 97.71484375 136.61328125 C97.06429596 139.79373712 96.79615087 140.53700805 94.15234375 142.36328125 C91.37620479 142.7106037 88.82848152 142.87891302 86.046875 142.90234375 C85.24883957 142.91470062 84.45080414 142.9270575 83.62858582 142.93978882 C81.93825609 142.95935762 80.24781235 142.97058763 78.55737305 142.97412109 C75.99004417 142.98814361 73.42766992 143.05537918 70.86132812 143.125 C57.10713135 143.30694472 57.10713135 143.30694472 52.13671875 138.9765625 C51.1035083 137.80492637 50.10246285 136.60325252 49.15234375 135.36328125 C48.30671875 134.55890625 47.46109375 133.75453125 46.58984375 132.92578125 C44.53505785 130.76562172 42.59252762 128.56224288 40.65234375 126.30078125 C38.03496077 123.26803097 35.31932792 120.82649116 32.15234375 118.36328125 C31.15234375 117.02994792 30.15234375 115.69661458 29.15234375 114.36328125 C28.49234375 114.36328125 27.83234375 114.36328125 27.15234375 114.36328125 C27.13776123 115.10489502 27.12317871 115.84650879 27.1081543 116.6105957 C27.03374918 119.96618756 26.93706369 123.32077619 26.83984375 126.67578125 C26.81728516 127.84302734 26.79472656 129.01027344 26.77148438 130.21289062 C26.73603516 131.33115234 26.70058594 132.44941406 26.6640625 133.6015625 C26.63787842 134.63321533 26.61169434 135.66486816 26.5847168 136.7277832 C26.15234375 139.36328125 26.15234375 139.36328125 25.0559082 141.19848633 C22.13010218 142.98879293 19.58613207 142.75260946 16.18359375 142.76171875 C15.50687622 142.76458893 14.83015869 142.76745911 14.13293457 142.77041626 C12.70401166 142.77245522 11.27506073 142.76693694 9.84619141 142.75439453 C7.6598465 142.73833636 5.47534996 142.75424659 3.2890625 142.7734375 C1.89973551 142.77145504 0.51040966 142.76761129 -0.87890625 142.76171875 C-2.14283203 142.75833496 -3.40675781 142.75495117 -4.70898438 142.75146484 C-7.84765625 142.36328125 -7.84765625 142.36328125 -9.51959324 141.18299866 C-11.35342762 138.67027124 -11.22778213 136.95680657 -11.2353363 133.85961914 C-11.24524094 132.71550568 -11.25514557 131.57139221 -11.26535034 130.39260864 C-11.26084869 129.13640717 -11.25634705 127.88020569 -11.25170898 126.5859375 C-11.25741079 125.25047229 -11.26437432 123.91501195 -11.27250671 122.57955933 C-11.29047326 118.951482 -11.28926342 115.32364605 -11.28356433 111.69553757 C-11.28047787 108.66852221 -11.28655877 105.64155358 -11.29260308 102.61454487 C-11.30665781 95.47508686 -11.30507884 88.33574849 -11.29370117 81.19628906 C-11.28221515 73.82586588 -11.29630133 66.45580636 -11.32309765 59.0854311 C-11.34523227 52.76093383 -11.35189723 46.4365509 -11.34602123 40.11201763 C-11.3426455 36.33306356 -11.34510738 32.55434271 -11.36227226 28.77542114 C-11.37770429 25.22286698 -11.37382843 21.67085299 -11.35496712 18.11832047 C-11.34950563 16.19018982 -11.36382322 14.26203514 -11.37866211 12.33395386 C-11.3639109 10.61778366 -11.3639109 10.61778366 -11.34886169 8.86694336 C-11.34865241 7.87069443 -11.34844313 6.8744455 -11.3482275 5.8480072 C-10.84765625 3.36328125 -10.84765625 3.36328125 -9.01385593 1.54257202 C-5.94604486 -0.12756084 -3.47843984 -0.00852164 0 0 Z " fill="#040404" transform="translate(592.84765625,319.63671875)"/>
<path d="M0 0 C14.43622212 -0.47569213 29.5992617 4.58058114 40.4765625 14.16015625 C41.08113281 14.68351562 41.68570313 15.206875 42.30859375 15.74609375 C51.72593427 24.48637058 57.20875197 36.3289694 57.7890625 49.15625 C58.1103677 65.20677118 54.89489463 79.13543099 44.1640625 91.59765625 C33.230029 102.84514433 19.83316598 109.06929608 4.10791016 109.45288086 C-4.2023231 109.52375145 -10.99146963 109.02853854 -18.5234375 105.16015625 C-19.54179687 104.639375 -20.56015625 104.11859375 -21.609375 103.58203125 C-27.83072193 100.17181145 -32.937283 96.57584774 -37.5234375 91.16015625 C-38.03261719 90.60199219 -38.54179687 90.04382813 -39.06640625 89.46875 C-49.18174629 77.42915505 -51.48519538 61.69039796 -50.74560547 46.49658203 C-49.39989098 32.3443978 -41.18674605 20.16140795 -30.5234375 11.16015625 C-20.8497282 4.0231085 -11.93091703 0.75722538 0 0 Z " fill="#0A0909" transform="translate(350.5234375,353.83984375)"/>
<path d="M0 0 C11.54242964 8.25303416 19.29688202 21.57147632 21.7265625 35.51171875 C22.03152638 39.80879277 22.05431507 44.09558839 22.0625 48.40234375 C22.0724852 50.23560211 22.0724852 50.23560211 22.08267212 52.105896 C22.09276036 54.67767844 22.09749033 57.24948685 22.09716797 59.82128906 C22.10156371 63.76280191 22.1379878 67.70321453 22.17578125 71.64453125 C22.18164556 74.14713159 22.18561753 76.64973724 22.1875 79.15234375 C22.20187103 80.33153381 22.21624207 81.51072388 22.23104858 82.72564697 C22.22489532 83.82068542 22.21874207 84.91572388 22.21240234 86.04394531 C22.21525238 87.00576721 22.21810242 87.96758911 22.22103882 88.95855713 C21.57919629 92.27262423 20.35756582 93.45831965 17.7265625 95.51171875 C14.58203125 96.02929688 14.58203125 96.02929688 10.9140625 96.04296875 C10.26332764 96.04679565 9.61259277 96.05062256 8.94213867 96.05456543 C7.57045946 96.05727951 6.19872806 96.04995328 4.82714844 96.03320312 C2.73254565 96.01177994 0.64137166 96.03301512 -1.453125 96.05859375 C-2.78907004 96.05595038 -4.12501295 96.05082518 -5.4609375 96.04296875 C-6.67136719 96.03845703 -7.88179688 96.03394531 -9.12890625 96.02929688 C-12.94501598 95.40117943 -13.89744233 94.50096649 -16.2734375 91.51171875 C-16.7587738 88.98306274 -16.7587738 88.98306274 -16.73999023 86.10400391 C-16.74536049 84.48179428 -16.74536049 84.48179428 -16.75083923 82.82681274 C-16.7363826 81.66322235 -16.72192596 80.49963196 -16.70703125 79.30078125 C-16.71663773 76.83463479 -16.72640845 74.36848897 -16.73632812 71.90234375 C-16.72772757 68.01587738 -16.71089674 64.12957612 -16.6887207 60.24316406 C-16.67420222 56.49120647 -16.68945515 52.7402049 -16.70703125 48.98828125 C-16.69055038 47.82873932 -16.67406952 46.66919739 -16.65708923 45.47451782 C-16.59551587 38.69769287 -16.59551587 38.69769287 -19.60180664 32.84912109 C-23.76384416 29.20776614 -27.82414372 27.40029815 -33.3359375 27.07421875 C-38.957952 27.69888703 -41.69087012 29.75206828 -45.41601562 33.89404297 C-48.48277813 38.67421127 -47.79668261 44.29253005 -47.7421875 49.76953125 C-47.74923706 50.9501413 -47.75628662 52.13075134 -47.7635498 53.34713745 C-47.78557464 57.11055258 -47.78257562 60.87325796 -47.7734375 64.63671875 C-47.76142461 69.59804166 -47.77501533 74.55830211 -47.8046875 79.51953125 C-47.79336792 80.66124786 -47.78204834 81.80296448 -47.77038574 82.97927856 C-47.7771936 84.0407309 -47.78400146 85.10218323 -47.79101562 86.19580078 C-47.78783325 87.12812531 -47.78465088 88.06044983 -47.78137207 89.02102661 C-48.42729814 92.29051657 -49.68112698 93.47947768 -52.2734375 95.51171875 C-55.43383789 96.01342773 -55.43383789 96.01342773 -59.12109375 96.0078125 C-59.77420029 96.00926773 -60.42730682 96.01072296 -61.10020447 96.01222229 C-62.47610959 96.01056729 -63.85203399 95.99905027 -65.2277832 95.97827148 C-67.3329929 95.94925933 -69.43569105 95.95767847 -71.54101562 95.97070312 C-72.88022056 95.96446672 -74.21941756 95.95607653 -75.55859375 95.9453125 C-76.77426025 95.93556396 -77.98992676 95.92581543 -79.24243164 95.91577148 C-82.2734375 95.51171875 -82.2734375 95.51171875 -83.93861389 94.34780884 C-85.81816715 91.76242671 -85.65437149 89.90988042 -85.66162109 86.73022461 C-85.67107758 85.54146225 -85.68053406 84.35269989 -85.6902771 83.12791443 C-85.68420441 81.84046829 -85.67813171 80.55302216 -85.671875 79.2265625 C-85.67389753 77.88716982 -85.67681047 76.54777821 -85.68057251 75.20838928 C-85.68499814 72.39638826 -85.67856469 69.58467289 -85.66455078 66.77270508 C-85.6475737 63.19417895 -85.6572243 59.6163336 -85.67526817 56.03783321 C-85.68619903 53.26743102 -85.68261558 50.49718539 -85.6748848 47.72677803 C-85.67194623 45.77389709 -85.68096324 43.82100974 -85.6902771 41.8681488 C-85.57680512 27.33896239 -81.15736314 15.37797911 -71.0234375 4.69921875 C-50.11565902 -14.795872 -23.29265306 -15.24828319 0 0 Z " fill="#060505" transform="translate(503.2734375,366.48828125)"/>
<path d="M0 0 C0.72348129 -0.0004985 1.44696259 -0.00099701 2.19236755 -0.00151062 C3.719663 0.00082736 5.24696247 0.01053972 6.77416992 0.02709961 C9.11607148 0.05073057 11.45683735 0.04765434 13.79882812 0.04101562 C15.28255889 0.04659126 16.76628485 0.05370043 18.25 0.0625 C19.30315147 0.06113289 19.30315147 0.06113289 20.37757874 0.05973816 C25.32754524 0.13223274 25.32754524 0.13223274 27.55859375 2.36328125 C27.76808152 5.41528118 27.85221884 8.37724139 27.84912109 11.43115234 C27.85583832 12.37111557 27.86255554 13.3110788 27.86947632 14.27952576 C27.88853338 17.3986433 27.89238447 20.51754655 27.89453125 23.63671875 C27.90095408 25.79904266 27.90768205 27.96136569 27.91470337 30.12368774 C27.92669562 34.66158056 27.93038222 39.19939714 27.92919922 43.73730469 C27.92899598 49.55730155 27.95629465 55.37681036 27.99074364 61.19669151 C28.01296256 65.66448214 28.01703829 70.13215443 28.01597977 74.59999466 C28.01834342 76.74584256 28.02720967 78.89169334 28.0426445 81.03748703 C28.06220196 84.03754753 28.05650647 87.03654411 28.04443359 90.03662109 C28.05567261 90.92611954 28.06691162 91.81561798 28.07849121 92.73207092 C28.01708859 98.72509208 28.01708859 98.72509208 25.72476196 101.91583252 C22.66396797 103.96107645 20.40563989 103.84906391 16.74609375 103.82421875 C16.09535889 103.82330231 15.44462402 103.82238586 14.77416992 103.82144165 C13.40243202 103.81541696 12.03070658 103.7997045 10.65917969 103.77490234 C8.56525944 103.73839746 6.47311154 103.73388317 4.37890625 103.734375 C-6.22955011 103.65629681 -6.22955011 103.65629681 -10.44140625 101.36328125 C-10.51083354 88.63751536 -10.56418055 75.91179432 -10.59684277 63.1858778 C-10.61251683 57.27708955 -10.63378698 51.36843061 -10.66772461 45.4597168 C-10.70025579 39.76038144 -10.71824614 34.06117067 -10.72603798 28.36174965 C-10.73159271 26.18437042 -10.74243935 24.00699822 -10.75859642 21.82967186 C-10.78028756 18.78628023 -10.78337664 15.74340732 -10.78198242 12.69995117 C-10.79276825 11.79436462 -10.80355408 10.88877808 -10.81466675 9.95574951 C-10.81054276 9.12703842 -10.80641876 8.29832733 -10.8021698 7.44450378 C-10.80493518 6.72458346 -10.80770056 6.00466314 -10.81054974 5.26292706 C-9.69702495 -0.46737231 -4.82559512 -0.06348234 0 0 Z " fill="#050505" transform="translate(544.44140625,358.63671875)"/>
<path d="M0 0 C6.52894068 5.06427338 10.77224168 12.44857589 12.125 20.5859375 C12.47506336 29.57089717 9.85881662 38.73400285 4.296875 45.90234375 C-2.16389906 52.16779208 -10.59263339 56.80329365 -19.6953125 56.84375 C-28.44161973 56.66549646 -35.88988919 53.95653791 -42.19921875 47.7421875 C-49.94512609 39.3656113 -51.95600667 30.83717232 -51.72265625 19.625 C-51.27239432 11.47918257 -47.08342155 5.42108276 -41.21484375 0 C-28.71803729 -10.01876168 -13.13119061 -8.09397978 0 0 Z " fill="#040404" transform="translate(374.3828125,383.46875)"/>
<path d="M0 0 C2.50571017 1.71211281 4.89894458 3.51417485 7.2890625 5.3828125 C8.6503125 6.28 8.6503125 6.28 10.0390625 7.1953125 C17.67218366 14.61640252 22.29586722 25.82828066 22.6015625 36.3828125 C22.46263476 47.85206889 18.00556896 59.15061352 10.25390625 67.6015625 C-0.02193749 77.31558763 -11.30875177 80.88177158 -25.24609375 80.62890625 C-36.38930166 79.83744954 -45.41861286 74.50186195 -53.078125 66.50390625 C-62.21378314 54.63629293 -63.90999394 41.81543428 -62.7109375 27.3828125 C-60.60679523 16.00979034 -53.31800988 7.84250261 -44.0859375 1.3828125 C-31.75569951 -6.97667088 -13.03527885 -7.77608853 0 0 Z M-46.7109375 18.3828125 C-50.65510383 24.23902199 -52.07942087 29.14964019 -52.0234375 36.1953125 C-52.01924805 36.90800293 -52.01505859 37.62069336 -52.01074219 38.35498047 C-51.82341649 47.06163964 -49.15242196 53.95083872 -42.88671875 60.203125 C-35.10527409 67.28794509 -28.07520267 69.77662357 -17.62109375 69.6640625 C-9.46440376 68.87576494 -1.28596375 64.708257 3.9453125 58.37890625 C10.02266203 49.81401414 12.88377639 40.9263754 11.2890625 30.3828125 C8.1325826 20.94805939 3.14812627 14.42890401 -5.65625 9.8515625 C-22.03597977 2.74710139 -34.78392357 5.62959334 -46.7109375 18.3828125 Z " fill="#DFDAD3" transform="translate(374.7109375,370.6171875)"/>
<path d="M0 0 C4.90038883 2.9154212 8.26061211 7.13677963 10.5 12.375 C11.77030824 19.33726634 10.14438832 24.41874915 6.2890625 30.23828125 C2.99700077 34.17006677 -0.6614072 35.76213573 -5.5 37.375 C-18.51571716 38.03681613 -18.51571716 38.03681613 -23.48828125 33.6015625 C-29.09720457 27.35394191 -31.09650971 22.95693035 -30.94140625 14.48828125 C-30.01312819 7.94104571 -26.37033101 3.93997084 -21.4375 -0.1875 C-15.0644414 -3.26073048 -6.36488371 -2.87446361 0 0 Z " fill="#040404" transform="translate(563.5,313.625)"/>
<path d="M0 0 C2.7109375 1.94140625 2.7109375 1.94140625 5.375 4.5625 C6.79425781 5.92761719 6.79425781 5.92761719 8.2421875 7.3203125 C9.15226562 8.20460938 10.06234375 9.08890625 11 10 C12.48997013 11.3238751 13.98865599 12.63807877 15.5 13.9375 C16.67403208 14.94985393 17.84149471 15.96991393 19 17 C19.57105469 17.495 20.14210938 17.99 20.73046875 18.5 C22 20 22 20 21.8125 23.0625 C21 26 21 26 19 28 C15.32337088 28.4878209 13.52996482 28.33162 10.359375 26.34765625 C9.49828125 25.59355469 8.6371875 24.83945312 7.75 24.0625 C6.80898438 23.24910156 5.86796875 22.43570312 4.8984375 21.59765625 C3.94195312 20.74042969 2.98546875 19.88320313 2 19 C1.04351562 18.15308594 0.08703125 17.30617188 -0.8984375 16.43359375 C-8.98090559 9.2195857 -8.98090559 9.2195857 -9.25 6.125 C-9 3 -9 3 -7.875 1.125 C-5.0860428 -0.54837432 -3.21264013 -0.354794 0 0 Z " fill="#0A0A09" transform="translate(287,336)"/>
<path d="M0 0 C2.6875 0.625 2.6875 0.625 4.5625 1.75 C6.30689695 4.65732824 6.20912774 6.26208174 5.6875 9.625 C3.62257733 12.32758552 1.12904261 14.46941121 -1.4375 16.6875 C-2.10265625 17.28626953 -2.7678125 17.88503906 -3.453125 18.50195312 C-5.38708554 20.23303741 -7.34567025 21.93144697 -9.3125 23.625 C-9.87976807 24.12950684 -10.44703613 24.63401367 -11.03149414 25.15380859 C-13.64284202 27.43261163 -15.00197015 28.57628944 -18.5 29.125 C-21.3125 28.625 -21.3125 28.625 -23.1875 27.5 C-24.8957463 24.65292284 -24.76167388 22.90712139 -24.3125 19.625 C-22.35212144 17.3568181 -20.57942568 15.59041421 -18.3125 13.6875 C-17.71816162 13.16897461 -17.12382324 12.65044922 -16.51147461 12.11621094 C-15.32663264 11.0838415 -14.13653154 10.05747282 -12.94091797 9.03759766 C-11.54981966 7.8308668 -10.20853736 6.56710963 -8.87890625 5.29296875 C-4.17102618 0.78698607 -4.17102618 0.78698607 0 0 Z " fill="#070706" transform="translate(423.3125,335.375)"/>
<path d="M0 0 C3.125 0.4375 3.125 0.4375 5.0625 2.49609375 C7.41933963 5.85726845 9.35642884 9.30155538 11.25 12.9375 C11.59675781 13.58847656 11.94351562 14.23945313 12.30078125 14.91015625 C17.21168316 24.22393574 17.21168316 24.22393574 16.9375 28.0625 C16.03356371 30.70477532 15.43556506 31.86961657 13.125 33.4375 C10.6875 33.9375 10.6875 33.9375 8.125 33.4375 C2.68937589 28.00187589 -0.25110739 20.83903639 -2.9453125 13.76953125 C-3.82827422 11.43276247 -3.82827422 11.43276247 -5.0078125 9.30078125 C-6.22271483 6.690383 -5.72588611 5.13197267 -4.875 2.4375 C-2.875 0.4375 -2.875 0.4375 0 0 Z " fill="#0D0D0C" transform="translate(314.875,314.5625)"/>
<path d="M0 0 C3.51535226 0.2757139 4.84433211 0.63646658 7.1875 3.25 C7.97233867 8.21456087 5.69004407 11.81701357 3.4375 16.0625 C3.08945312 16.73603516 2.74140625 17.40957031 2.3828125 18.10351562 C1.68052502 19.46257194 0.97414811 20.81952296 0.26367188 22.17431641 C-0.85721137 24.33623776 -1.93847794 26.5152203 -3.015625 28.69921875 C-4.8125 32.25 -4.8125 32.25 -5.8125 33.25 C-11.18567205 33.71723235 -11.18567205 33.71723235 -13.5078125 31.98632812 C-15.14525718 29.807154 -15.12575961 28.89858808 -14.8125 26.21875 C-13.96263314 20.51909943 -11.49045872 15.79348893 -8.8125 10.75 C-8.11640625 9.39261719 -8.11640625 9.39261719 -7.40625 8.0078125 C-3.42744544 0.30466182 -3.42744544 0.30466182 0 0 Z " fill="#0A0A0A" transform="translate(390.8125,314.75)"/>
<path d="M0 0 C3.5625 0.25 3.5625 0.25 6.5625 2.25 C7.14739973 6.34041054 7.0348326 10.44263553 7.00854492 14.57128906 C7.000058 16.61106002 7.02874145 18.64800776 7.06054688 20.6875 C7.05990234 21.97398437 7.05925781 23.26046875 7.05859375 24.5859375 C7.06044678 25.76720215 7.0622998 26.9484668 7.06420898 28.16552734 C6.46531499 31.84748682 5.50302447 33.02530324 2.5625 35.25 C-0.25838172 35.73161395 -1.67985818 35.76292635 -4.06713867 34.14672852 C-6.12406603 31.29971825 -5.80921934 28.94202291 -5.80078125 25.46484375 C-5.80127975 24.80795059 -5.80177826 24.15105743 -5.80229187 23.47425842 C-5.79995488 22.08819548 -5.79024825 20.70212801 -5.77368164 19.31616211 C-5.75004461 17.19151016 -5.75312808 15.06810978 -5.75976562 12.94335938 C-5.70790871 0.41512063 -5.70790871 0.41512063 0 0 Z " fill="#0E0E0D" transform="translate(353.4375,306.75)"/>
<path d="M0 0 C0.66 0.33 1.32 0.66 2 1 C1.08476562 1.89203125 0.16953125 2.7840625 -0.7734375 3.703125 C-1.97422282 4.88514805 -3.17472909 6.06745461 -4.375 7.25 C-4.97828125 7.83652344 -5.5815625 8.42304688 -6.203125 9.02734375 C-7.07324219 9.88779297 -7.07324219 9.88779297 -7.9609375 10.765625 C-8.76217041 11.55114746 -8.76217041 11.55114746 -9.57958984 12.35253906 C-11.10817372 14.12546516 -12.0414787 15.87264893 -13 18 C-13.40625 15.3984375 -13.40625 15.3984375 -13 12 C-11.13761915 9.52428699 -8.86252483 7.61423608 -6.5 5.625 C-5.56994141 4.80708984 -5.56994141 4.80708984 -4.62109375 3.97265625 C-3.09382287 2.63335717 -1.54858528 1.31459575 0 0 Z " fill="#292928" transform="translate(412,343)"/>
<path d="M0 0 C0.66 0.33 1.32 0.66 2 1 C-0.64 3.64 -3.28 6.28 -6 9 C-6 6 -6 6 -3.5625 3.375 C-2.716875 2.59125 -1.87125 1.8075 -1 1 C-0.67 0.67 -0.34 0.34 0 0 Z " fill="#252624" transform="translate(542,314)"/>
</svg>
